<?xml version="1.0" encoding="UTF-8"?>
<svg width="139px" height="150px" viewBox="0 0 139 150" version="1.1" xmlns="http://www.w3.org/2000/svg" xmlns:xlink="http://www.w3.org/1999/xlink">
    <!-- Generator: Sketch 45.2 (43514) - http://www.bohemiancoding.com/sketch -->
    <title>noun_1060727_cc</title>
    <desc>Created with Sketch.</desc>
    <defs></defs>
    <g id="Page-1" stroke="none" stroke-width="1" fill="none" fill-rule="evenodd">
        <g id="noun_1060727_cc" transform="translate(0.000000, -0.001886)" fill-rule="nonzero" fill="#FFFFFF">
            <path d="M59.0180558,0.604889196 C57.2646842,0.855367875 56.1138511,1.94547078 55.8387672,3.36873125 C55.5636832,4.79199172 56.2254213,6.2324235 57.4844325,6.9509167 L64.2535285,11.022951 C28.3723613,13.6628528 0,43.6469714 0,80.1946508 C0,118.473863 31.1040215,149.577885 69.383234,149.577885 C107.662447,149.577885 138.766468,118.473863 138.766468,80.1946508 C138.766468,63.3369144 132.76958,47.755618 122.742749,35.7195747 C121.994978,34.7079994 120.747906,34.1945455 119.504664,34.3863661 C118.261422,34.5781868 117.227102,35.4436381 116.819001,36.6335537 C116.410899,37.8234693 116.696339,39.1415542 117.56016,40.0560268 C126.597915,50.9047978 131.997372,64.9383539 131.997372,80.1946508 C131.997372,114.815573 104.004156,142.808789 69.383234,142.808789 C34.7623118,142.808789 6.769096,114.815573 6.769096,80.1946508 C6.769096,47.5927231 31.6018276,20.8510743 63.4073915,17.8449306 L57.4844325,21.4410128 C56.4452912,22.0644976 55.8177103,23.1949965 55.8380933,24.4066616 C55.8584763,25.6183267 56.5237266,26.7270772 57.5832509,27.3152575 C58.6427751,27.9034379 59.9356064,27.8816895 60.9747476,27.2582047 L77.8974876,17.1045607 C78.9228004,16.4942451 79.5510376,15.3891753 79.5510376,14.1959648 C79.5510376,13.0027542 78.9228004,11.8976844 77.8974876,11.2873688 L60.9747476,1.13372482 C60.3918457,0.761719798 59.7089926,0.577164901 59.0180558,0.604889196 Z M69.383234,34.5032528 C44.1886587,34.5032528 23.691836,55.0000772 23.691836,80.1946508 C23.691836,105.389226 44.1886587,125.886049 69.383234,125.886049 C94.5778077,125.886049 115.074632,105.389226 115.074632,80.1946508 C115.074632,60.2329221 102.207882,43.2201752 84.3322572,37.0142845 C79.6462716,35.3874482 74.6160789,34.5032528 69.383234,34.5032528 Z M69.383234,41.2723488 C90.9195157,41.2723488 108.305536,58.6583691 108.305536,80.1946508 C108.305536,101.730931 90.9195157,119.116953 69.383234,119.116953 C47.8469523,119.116953 30.460932,101.730931 30.460932,80.1946508 C30.460932,58.6583691 47.8469523,41.2723488 69.383234,41.2723488 Z M65.998686,54.8105408 L65.998686,80.1946508 C65.9985869,81.425714 66.6668703,82.5597706 67.7438436,83.1561303 C69.7082158,84.2474482 71.1814949,85.0659366 72.163681,85.6115955 C74.5660429,86.946241 78.1695858,88.9482093 82.9743096,91.6175003 C84.6098896,92.5229106 86.6697691,91.9309911 87.5751794,90.2954112 C88.4805897,88.6598313 87.8886704,86.5999517 86.2530905,85.6945413 L72.7677821,78.1850754 C72.7677821,72.512112 72.7677821,68.2573895 72.7677821,65.4209078 C72.7677821,63.0630484 72.7677821,59.5262595 72.7677821,54.8105408 C72.7821151,53.8945585 72.4245627,53.0118818 71.7767861,52.3641052 C71.1290095,51.7163286 70.2463328,51.3587762 69.3303505,51.3731092 C69.2246415,51.3681492 65.960958,53.0567438 65.998686,54.8105408 Z" id="Shape"></path>
        </g>
    </g>
</svg>