<?xml version="1.0" encoding="UTF-8"?>
<svg width="141px" height="149px" viewBox="0 0 141 149" version="1.1" xmlns="http://www.w3.org/2000/svg" xmlns:xlink="http://www.w3.org/1999/xlink">
    <!-- Generator: Sketch 45.2 (43514) - http://www.bohemiancoding.com/sketch -->
    <title>noun_943220_cc</title>
    <desc>Created with Sketch.</desc>
    <defs></defs>
    <g id="Page-1" stroke="none" stroke-width="1" fill="none" fill-rule="evenodd">
        <g id="noun_943220_cc" fill-rule="nonzero" fill="#FFFFFF">
            <g id="Group" transform="translate(0.281749, 0.030457)">
                <path d="M66.9370597,0.303688565 C64.8332767,0.428659158 62.7679204,0.660890607 60.7192715,1.00673169 L60.7192715,23.5271676 L53.9334351,23.5271676 L53.9334351,2.52074708 C29.5020184,9.66311719 11.6502699,32.2142946 11.6502699,58.943299 L11.6502699,136.696393 L12.2995155,136.696393 C5.54475474,136.696393 0.0523974296,142.18875 0.0523974296,148.943845 L140.608895,148.943845 C140.644314,142.202785 135.184369,136.723793 128.415908,136.723793 L115.466081,136.723793 L115.466081,128.26188 L98.8663779,128.26188 C104.389142,128.26188 109.247625,125.44102 112.140661,121.205386 C112.362199,121.266535 112.540299,121.354081 112.761838,121.395515 C113.301818,121.481056 113.870534,121.505115 114.411183,121.505115 C119.685008,121.505115 124.44592,117.330295 125.387543,111.475389 C126.439769,105.052436 122.471117,99.0618666 116.546709,98.0928433 C115.994032,98.0073019 115.465079,97.9538386 114.951831,97.9538386 C114.866289,97.9538386 114.765711,98.0149873 114.681507,98.0149873 C114.266163,95.9108701 112.463112,94.2842475 110.220658,94.2842475 L73.1822479,94.2842475 C70.6350531,94.2842475 68.5322725,96.3462623 68.5322725,98.9068229 L68.5322725,112.235237 C68.5322725,121.080081 75.7053841,128.267227 84.564262,128.267227 L70.9113918,128.267227 L70.9113918,136.729139 L57.9612306,136.729139 L57.9612306,53.9742143 L87.2137054,53.9742143 L87.2137054,67.3300287 L99.1360336,67.3300287 L99.1360336,53.9742143 L129.036752,53.9742143 C127.846858,39.7172082 121.514458,26.8652859 112.004997,17.3421257 C105.083832,10.4209602 96.4291171,5.26842939 86.7809864,2.47229591 L86.7809864,23.532514 L79.9684184,23.532514 L79.9684184,0.985346344 C77.9194353,0.65320525 75.854079,0.434673785 73.7499619,0.310037338 L73.7499619,23.5331823 L66.9370597,23.5331823 L66.9370597,0.310037338 L66.9370597,0.303688565 Z M38.9289445,1.16879248 C32.589193,1.16879248 27.4390011,6.29191849 27.4390011,12.63167 L27.4390011,16.2274148 C31.9650083,11.6456052 37.2107659,7.74010713 43.0382716,4.79193724 L43.0382716,1.16879248 L38.9289445,1.16879248 L38.9289445,1.16879248 Z M35.1978706,41.0995701 C38.3953134,41.0995701 40.983608,43.7018989 40.983608,46.8853075 C40.983608,50.0690503 38.3816134,52.6707109 35.1978706,52.6707109 C32.0141278,52.6707109 29.4124672,50.0830845 29.4124672,46.8853075 C29.4124672,43.6878647 32.0004278,41.0995701 35.1978706,41.0995701 Z M35.2212608,60.2949195 C38.5156059,60.2949195 41.1957907,62.9480385 41.1957907,66.2427177 L41.1957907,122.286682 C41.1957907,125.581027 38.5156059,128.261212 35.2212608,128.261212 C31.9269157,128.261212 29.2463967,125.581027 29.2463967,122.286682 L29.2463967,66.2427177 C29.2463967,62.9480385 31.9269157,60.2949195 35.2212608,60.2949195 L35.2212608,60.2949195 Z M93.2116256,71.622802 C92.7548481,71.622802 92.3137754,71.8309749 92.0227342,72.1901818 C90.3065605,74.294299 87.4268906,78.1794142 87.4268906,80.4629678 C87.4268906,83.6467106 90.0285511,86.2483711 93.212628,86.2483711 C96.3960367,86.2483711 98.9980314,83.6467106 98.9980314,80.4629678 C98.9980314,78.1794142 96.1049956,74.3083331 94.3747877,72.1901818 C94.0834124,71.8309749 93.6694056,71.622802 93.212628,71.622802 L93.2116256,71.622802 Z M97.3754185,79.7335271 C97.5274549,79.7335271 97.6724743,79.8574953 97.6724743,80.0305829 C97.6724743,82.4942411 95.6615839,84.4914316 93.2116256,84.4914316 C93.0455551,84.4914316 92.9145698,84.3674634 92.9145698,84.1940417 C92.9145698,84.0286394 93.038538,83.8969859 93.2116256,83.8969859 C95.3431427,83.8969859 97.0776945,82.1624342 97.0776945,80.0305829 C97.0776945,79.8648465 97.2227138,79.7335271 97.3747502,79.7335271 L97.3754185,79.7335271 Z M92.1573951,98.9011424 C92.3922997,98.9011424 92.6118336,98.9111668 92.8333724,98.961957 C91.3664716,101.467718 88.226836,107.737967 91.5629494,111.07408 C93.8468371,113.357634 92.0735244,118.20275 90.4542531,121.455327 C87.3951467,120.209631 85.1283004,115.727731 85.1283004,110.371037 C85.1283004,104.04532 88.281636,98.9081595 92.1577292,98.9081595 L92.1573951,98.9011424 Z M93.7522738,99.225264 C96.8671825,100.415492 99.159758,104.937489 99.159758,110.363686 C99.159758,116.689403 96.0331542,121.826563 92.1573951,121.826563 C91.8944222,121.826563 91.6371298,121.803173 91.3738228,121.741356 C93.0903306,118.26724 94.8562921,113.084971 92.2108584,110.413474 C89.2763885,107.479338 92.4644752,101.394205 93.7519396,99.2212542 L93.7522738,99.225264 Z M114.894023,103.659047 C114.907389,103.659047 114.929777,103.659047 114.954838,103.659047 C115.176711,103.659047 115.409611,103.672413 115.658215,103.719861 C116.917611,103.927032 118.046022,104.67886 118.821241,105.855722 C119.693696,107.198321 120.044884,108.884756 119.767877,110.559495 C119.283031,113.535399 117.029884,115.77685 114.46899,115.804585 C114.745663,114.669157 114.900372,113.467568 114.900372,112.235571 L114.900372,103.66573 L114.894023,103.659047 Z" id="Shape"></path>
            </g>
        </g>
    </g>
</svg>