<?xml version="1.0" encoding="UTF-8"?>
<svg width="160px" height="149px" viewBox="0 0 160 149" version="1.1" xmlns="http://www.w3.org/2000/svg" xmlns:xlink="http://www.w3.org/1999/xlink">
    <!-- Generator: Sketch 45.2 (43514) - http://www.bohemiancoding.com/sketch -->
    <title>noun_822269_cc</title>
    <desc>Created with Sketch.</desc>
    <defs></defs>
    <g id="Page-1" stroke="none" stroke-width="1" fill="none" fill-rule="evenodd">
        <g id="noun_822269_cc" fill-rule="nonzero" fill="#FFFFFF">
            <path d="M105.728417,63.4078303 L53.3593288,63.4078303 C51.4138189,63.4078303 49.8366715,61.8306829 49.8366715,59.885173 L49.8366715,54.8203387 C49.8305461,52.9869201 50.6467224,51.2473325 52.0606533,50.0801732 C57.4079226,45.7640575 63.2041693,42.0359552 69.3492706,38.9602644 C69.4304742,38.9217803 69.4813772,38.839063 69.4791382,38.7492296 L69.4791382,33.1324582 C68.6901158,31.7698066 68.1410175,30.2817501 67.8557938,28.733195 C66.9791879,28.4572264 66.2324495,27.1098506 65.4370107,24.415099 C64.641572,21.7203474 64.7552061,20.4541388 65.4370107,19.6587001 C65.7140335,19.3403409 66.1041446,19.1423741 66.5246514,19.106763 C66.3759397,18.6329926 66.2566668,18.1504797 66.1675157,17.6619865 L66.1675157,17.6619865 C65.7185076,15.7288816 65.7185076,13.7185849 66.1675157,11.78548 C66.7353318,9.49347926 67.9264697,7.40336926 69.6090057,5.746639 C70.5757647,4.74100599 71.66679,3.8627306 72.8556944,3.13305459 C73.8026144,2.4500021 74.8409032,1.90353434 75.9400487,1.50971024 C76.8574069,1.19962347 77.8136125,1.01931042 78.7809013,0.97400661 C81.2389594,0.706332316 83.7183315,1.22950258 85.8586826,2.46748341 C87.2380586,3.19846026 88.4063735,4.27174478 89.2514723,5.58430456 C90.2752821,5.79578892 91.1870464,6.37285496 91.8163564,7.20764891 C93.4397007,9.28552968 93.8617703,12.7919535 93.0663315,17.6295196 C92.9780455,18.1235311 92.8587646,18.6114983 92.7091958,19.0905295 C93.1297027,19.1261406 93.5198137,19.3241075 93.7968365,19.6424666 C94.4624077,20.4379054 94.4624077,21.9963159 93.7968365,24.3988656 C93.1312653,26.8014152 92.2546594,28.440993 91.3780534,28.7169615 C91.0927938,30.2501678 90.5435237,31.7222118 89.7547091,33.0675244 L89.7547091,38.7492296 C89.7524701,38.839063 89.803373,38.9217803 89.8845766,38.9602644 C96.0282003,42.025715 101.82439,45.7428957 107.173194,50.0477063 C108.587125,51.2148656 109.403301,52.9544532 109.397176,54.7878718 L109.397176,59.8527062 C109.40691,60.8184685 109.019695,61.7458701 108.326106,62.417976 C107.632518,63.0900819 106.693396,63.447936 105.728417,63.4078303 L105.728417,63.4078303 Z M103.764171,94.2513729 L100.517482,96.9136577 C101.004958,99.5318001 101.004958,102.217436 100.517482,104.835578 L103.764171,107.497863 C105.388506,108.855612 105.799666,111.185516 104.738177,113.017234 L102.660297,116.621058 C101.62069,118.470839 99.3982904,119.300809 97.400661,118.585305 L93.5046345,117.156762 C91.4886095,118.893423 89.1650074,120.236927 86.6541214,121.117722 L85.9398499,125.192316 C85.5769121,127.275443 83.7687279,128.795961 81.6542208,128.796141 L77.4659923,128.796141 C75.3514852,128.795961 73.5433011,127.275443 73.1803633,125.192316 L72.4660918,121.117722 C69.9550448,120.237277 67.6313803,118.893737 65.6155786,117.156762 L61.7195522,118.585305 C59.7337946,119.30917 57.5150687,118.501115 56.4599165,116.669758 L54.3820357,113.065934 C53.3205473,111.234216 53.7317068,108.904312 55.3560423,107.546563 L58.602731,104.884278 C58.1152549,102.266136 58.1152549,99.5805005 58.602731,96.962358 L55.3560423,94.3000733 C53.7317068,92.9423243 53.3205473,90.6124204 54.3820357,88.7807025 L56.4599165,85.176878 C57.5166841,83.3665014 59.7107776,82.5624547 61.6870853,83.2613317 L65.5831117,84.6898747 C67.5984659,82.9522697 69.9222553,81.6086569 72.4336249,80.7289145 L73.1478964,76.6380867 C73.5199119,74.5492859 75.3443905,73.0334597 77.4659923,73.0504957 L81.6379873,73.0504957 C83.7524945,73.050675 85.5606786,74.5711935 85.9236164,76.6543202 L86.6378879,80.7451479 C89.1494191,81.6245384 91.4732712,82.9681875 93.4884011,84.7061081 L97.3844275,83.2775651 C99.3701807,82.5607119 101.584405,83.367127 102.644063,85.1931115 L104.721944,88.7969359 C105.777942,90.6211277 105.374378,92.9399114 103.764171,94.3000733 L103.764171,94.2513729 Z M86.8489227,100.923318 C86.8489227,96.8888507 83.5783406,93.6182686 79.5438731,93.6182686 C75.5094056,93.6182686 72.2388235,96.8888507 72.2388235,100.923318 C72.2388235,104.957786 75.5094056,108.228368 79.5438731,108.228368 C83.5783406,108.228368 86.8489227,104.957786 86.8489227,100.923318 Z M139.607614,124.007275 C139.52641,123.968791 139.475507,123.886073 139.477746,123.79624 L139.477746,118.114535 C140.266561,116.769222 140.815831,115.297178 141.101091,113.763972 C141.977697,113.488003 142.724435,112.140628 143.519874,109.445876 C144.315313,106.751124 144.201679,105.484916 143.519874,104.689477 C143.242851,104.371118 142.85274,104.173151 142.432233,104.13754 C142.582136,103.658602 142.701422,103.170613 142.789369,102.67653 C143.601041,97.806497 143.178972,94.3325401 141.539394,92.2546594 C140.910084,91.4198654 139.998319,90.8427994 138.97451,90.631315 C138.128851,89.3192269 136.960673,88.2460686 135.58172,87.5144939 C133.439508,86.2821394 130.960252,85.7646801 128.503939,86.0372505 C127.53665,86.0825543 126.580444,86.2628674 125.663086,86.5729541 C124.563854,86.9665805 123.525538,87.5130624 122.578732,88.1962985 C121.389827,88.9259745 120.298802,89.8042499 119.332043,90.8098829 C117.649507,92.4666132 116.458369,94.5567232 115.890553,96.8487239 C115.441545,98.7818288 115.441545,100.792126 115.890553,102.72523 L115.890553,102.72523 C115.979865,103.213689 116.099136,103.696192 116.247689,104.170007 C115.827182,104.205618 115.437071,104.403585 115.160048,104.721944 C114.494477,105.517383 114.494477,107.075793 115.160048,109.478343 C115.825619,111.880893 116.702225,113.52047 117.578831,113.796439 C117.864055,115.344994 118.413153,116.833051 119.202176,118.195702 L119.202176,123.828707 C119.200591,123.917466 119.150829,123.998329 119.072308,124.039742 C112.928684,127.105192 107.132495,130.822373 101.783691,135.127184 C100.36976,136.294343 99.5535835,138.033931 99.5597089,139.867349 L99.5597089,144.932184 C99.5597089,146.877693 101.136856,148.454841 103.082366,148.454841 L155.565089,148.454841 C156.502175,148.454851 157.400646,148.081487 158.061741,147.417346 C158.722836,146.753204 159.092065,145.853026 159.087746,144.91595 L159.087746,139.851116 C159.096182,138.017187 158.279565,136.276659 156.863764,135.11095 C151.525575,130.802958 145.740387,127.08041 139.607614,124.007275 L139.607614,124.007275 Z M3.55512412,148.35744 L55.8917459,148.35744 C57.8372558,148.35744 59.4144032,146.780293 59.4144032,144.834783 L59.4144032,139.851116 C59.4228394,138.017187 58.6062217,136.276659 57.1904214,135.11095 C51.8416173,130.80614 46.0454278,127.088959 39.9018041,124.023508 C39.8206005,123.985024 39.7696975,123.902307 39.7719366,123.812474 L39.7719366,118.130768 C40.5601566,116.785173 41.1093871,115.313236 41.3952809,113.780205 C42.2718869,113.504237 43.0186253,112.156861 43.814064,109.462109 C44.6095027,106.767358 44.4958686,105.501149 43.814064,104.705711 C43.5370412,104.387351 43.1469301,104.189385 42.7264233,104.153773 C42.8761166,103.674777 42.9953995,103.186802 43.083559,102.692764 C43.8952312,97.8227305 43.4731617,94.3487736 41.8335839,92.2708928 C41.2042739,91.4360989 40.2925095,90.8590328 39.2686998,90.6475485 C38.423041,89.3354603 37.2548635,88.262302 35.8759101,87.5307273 C33.7444156,86.3006016 31.2778659,85.7777385 28.8305956,86.0372505 C27.8633069,86.0825543 26.9071013,86.2628674 25.989743,86.5729541 C24.8848516,86.9651897 23.8409857,87.5117164 22.8891553,88.1962985 C21.7002509,88.9259745 20.6092256,89.8042499 19.6424666,90.8098829 C17.9820408,92.4526098 16.8030784,94.518601 16.2334435,96.7837901 C15.7844354,98.716895 15.7844354,100.727192 16.2334435,102.660297 L16.2334435,102.660297 C16.3225946,103.14879 16.4418675,103.631303 16.5905792,104.105073 C16.1700724,104.140684 15.7799613,104.338651 15.5029385,104.65701 C14.8373674,105.452449 14.8373674,107.01086 15.5029385,109.413409 C16.1685097,111.815959 17.0451157,113.455537 17.9217216,113.731505 C18.2069453,115.28006 18.7560436,116.768117 19.545066,118.130768 L19.545066,123.763773 C19.547305,123.853607 19.496402,123.936324 19.4151984,123.974808 C13.3035699,127.062318 7.54028213,130.795666 2.22398176,135.11095 C0.81005091,136.27811 -0.00612544603,138.017697 -2.91968056e-14,139.851116 L-2.91968056e-14,144.91595 C-1.08132904e-15,146.86146 1.57714737,148.438607 3.52265724,148.438607 L3.55512412,148.35744 Z" id="Shape"></path>
        </g>
    </g>
</svg>