<?xml version="1.0" encoding="UTF-8"?>
<svg width="83px" height="150px" viewBox="0 0 83 150" version="1.1" xmlns="http://www.w3.org/2000/svg" xmlns:xlink="http://www.w3.org/1999/xlink">
    <!-- Generator: Sketch 45.2 (43514) - http://www.bohemiancoding.com/sketch -->
    <title>noun_642303_cc</title>
    <desc>Created with Sketch.</desc>
    <defs></defs>
    <g id="Page-1" stroke="none" stroke-width="1" fill="none" fill-rule="evenodd">
        <g id="noun_642303_cc" fill-rule="nonzero" fill="#FFFFFF">
            <g id="Group">
                <path d="M20.1861419,145.811793 C19.9555629,145.836812 19.7358029,145.862507 19.5113096,145.887526 C21.0597726,147.884975 23.4460284,149.02908 25.9249215,149.02908 C27.035893,149.02908 28.1651214,148.799853 29.243636,148.315705 C32.0159933,147.072877 34.7545413,146.149209 37.4376422,145.465586 C35.3211841,145.239065 33.1479265,145.11397 30.8962314,145.111942 C26.893218,145.111942 23.2357349,145.465586 20.1861419,145.811793 Z" id="Shape"></path>
                <path d="M18.7742683,115.519395 C14.9186631,117.541863 11.0022013,119.798968 7.62398252,122.424593 C5.93081602,123.758705 4.35124856,125.166522 2.92382265,127.005068 C2.21315253,127.931441 1.53561546,128.978851 0.979115449,130.269688 C0.429377286,131.553086 0.00202855411,133.123863 0.000676184702,134.906286 C-0.018256987,136.798927 0.553795271,138.87549 1.55454863,140.511857 C2.32201827,141.809456 3.41135182,142.846047 4.43577165,143.509384 C5.99640594,144.516223 7.32713743,144.847554 8.39686163,145.051085 C9.47875716,145.241093 10.3659115,145.275579 11.2084376,145.278959 C13.7008544,145.255293 16.020168,144.934781 18.7066498,144.618327 C19.1400842,144.567613 19.5802804,144.516899 20.0346765,144.466862 C23.2621061,144.099693 26.9195892,143.75822 30.89826,143.75822 C34.1912795,143.760925 37.6837735,143.995561 41.3074473,144.631851 C45.2042997,145.316826 49.2526175,146.467692 53.3753157,148.315705 C54.4538303,148.799853 55.5823825,149.02908 56.6920016,149.02908 C59.655043,149.02908 62.4869045,147.393389 63.9109495,144.618327 C63.9758632,144.491204 64.0414532,144.365434 64.1002812,144.234254 C65.9340941,140.144689 64.1070431,135.343778 60.0188304,133.509289 C53.5308381,130.596285 47.1855209,129.004546 41.3060949,128.210705 C37.6945924,127.723176 34.2588979,127.535197 31.0760965,127.529787 C31.72591,127.222799 32.3594951,126.929335 32.9700899,126.652099 C34.9749775,125.736545 36.7350863,124.980571 37.9806185,124.461261 C38.1124746,124.405814 38.234864,124.3551 38.3552249,124.305062 L41.6779965,124.305062 L44.2637268,124.305062 C45.8629036,124.969076 48.5385665,126.115209 51.5381218,127.529787 C49.8720027,127.532492 48.134208,127.587939 46.34029,127.706948 C51.3014572,128.725282 56.0584166,130.248726 60.5733018,132.275928 C65.3336421,134.413347 67.4697096,140.025004 65.3336421,144.787373 C67.4386051,145.03959 69.3664077,145.258674 71.4084855,145.277607 C72.5329806,145.263407 73.7298276,145.234331 75.3729564,144.781964 C76.1924923,144.545975 77.1465889,144.184216 78.1791229,143.51006 C79.2021904,142.846047 80.2928763,141.810132 81.0623745,140.511181 C82.0543374,138.872109 82.6331515,136.81786 82.6148946,134.90561 C82.6148946,133.122511 82.1868696,131.55241 81.6378077,130.269688 C80.5761977,127.859089 79.1758192,126.256531 77.7341934,124.810849 C75.1903865,122.332632 72.2652115,120.360877 69.1540857,118.478379 C66.0111792,116.60129 62.6600078,114.867552 59.5962149,113.391441 L59.5962149,77.2473404 C69.1256859,64.0732338 73.1002996,53.6234754 73.1266708,44.50242 C73.1435754,38.5648421 71.3273433,33.4413906 68.7848888,29.3051688 C64.9590358,23.089679 59.7706706,18.7803539 56.0388072,14.932863 C54.1603661,13.0287268 52.651798,11.2706466 51.7274535,9.71068851 C50.7963472,8.12909249 50.4088934,6.87206513 50.3973982,5.40947762 C50.3973982,2.4220936 47.9753046,0.000676184702 44.9872444,0.000676184702 C43.5645518,0.000676184702 42.273039,0.554471456 41.3081235,1.45244474 C40.3432079,0.553795271 39.0523713,0 37.6276501,0 C34.6409423,0 32.2188487,2.4220936 32.2188487,5.41082999 C32.2066774,7.32308033 31.5102071,9.02977051 29.7764695,11.3348842 C27.2211676,14.7584073 22.4459512,18.6187458 18.0067986,23.6711979 C15.7949985,26.2183856 13.6670452,29.1293608 12.0780112,32.5907503 C10.4876247,36.0440256 9.48078571,40.0585341 9.48822374,44.50242 C9.51324258,53.6241516 13.490561,64.0752624 23.0213844,77.2493689 L23.0213844,111.895721 L23.0213844,113.394146 C21.6467009,114.056131 20.215894,114.768153 18.7742683,115.519395 Z M20.3078552,44.50242 C20.3240836,40.6968525 21.3485034,37.7939916 23.0693935,34.9357588 C25.6355144,30.660243 30.0374768,26.8046378 34.2960881,22.5135697 C36.4132224,20.3497786 38.5012808,18.0460173 40.1734855,15.2635173 C40.5839296,14.5832755 40.9666502,13.8651673 41.3108282,13.1152785 C42.1181927,14.8774158 43.1432887,16.4759165 44.2400603,17.8999614 C48.0767323,22.8489573 52.8911674,26.6247727 56.4418133,30.7684325 C58.2282933,32.8206531 59.6935855,34.8958639 60.7024531,37.0995499 C61.7079397,39.31135 62.3002775,41.6408063 62.3077156,44.5030962 C62.3300297,49.7401467 60.1209342,57.1910259 53.1278321,67.6096798 L29.4877387,67.6096798 C22.4939603,57.1903497 20.2835125,49.7394705 20.3078552,44.50242 Z" id="Shape"></path>
                <circle id="Oval" transform="translate(41.307937, 47.867786) rotate(-76.890715) translate(-41.307937, -47.867786) " cx="41.3079374" cy="47.8677864" r="15.2101623"></circle>
            </g>
        </g>
    </g>
</svg>